<?xml version="1.0" encoding="UTF-8"?>
<svg id="Layer_2" data-name="Layer 2" xmlns="http://www.w3.org/2000/svg" viewBox="0 0 2229.1 889.23">
  <defs>
    <style>
      .cls-1 {
        fill: none;
        stroke: #000;
        stroke-miterlimit: 10;
      }

      .cls-2 {
        opacity: .5;
      }
    </style>
  </defs>
  <g id="Layer_1-2" data-name="Layer 1">
    <g class="cls-2">
      <line class="cls-1" x1=".5" x2=".5" y2="889.23"/>
      <line class="cls-1" x1="50.01" x2="50.01" y2="889.23"/>
      <line class="cls-1" x1="99.53" x2="99.53" y2="889.23"/>
      <line class="cls-1" x1="149.04" x2="149.04" y2="889.23"/>
      <line class="cls-1" x1="198.55" x2="198.55" y2="889.23"/>
      <line class="cls-1" x1="248.07" x2="248.07" y2="889.23"/>
      <line class="cls-1" x1="297.58" x2="297.58" y2="889.23"/>
      <line class="cls-1" x1="347.09" x2="347.09" y2="889.23"/>
      <line class="cls-1" x1="396.61" x2="396.61" y2="889.23"/>
      <line class="cls-1" x1="446.12" x2="446.12" y2="889.23"/>
      <line class="cls-1" x1="495.63" x2="495.63" y2="889.23"/>
      <line class="cls-1" x1="545.15" x2="545.15" y2="889.23"/>
      <line class="cls-1" x1="594.66" x2="594.66" y2="889.23"/>
      <line class="cls-1" x1="644.17" x2="644.17" y2="889.23"/>
      <line class="cls-1" x1="693.69" x2="693.69" y2="889.23"/>
      <line class="cls-1" x1="743.2" x2="743.2" y2="889.23"/>
      <line class="cls-1" x1="792.71" x2="792.71" y2="889.23"/>
      <line class="cls-1" x1="842.23" x2="842.23" y2="889.23"/>
      <line class="cls-1" x1="891.74" x2="891.74" y2="889.23"/>
      <line class="cls-1" x1="941.26" x2="941.26" y2="889.23"/>
      <line class="cls-1" x1="990.77" x2="990.77" y2="889.23"/>
      <line class="cls-1" x1="1040.28" x2="1040.28" y2="889.23"/>
      <line class="cls-1" x1="1089.8" x2="1089.8" y2="889.23"/>
      <line class="cls-1" x1="1139.31" x2="1139.31" y2="889.23"/>
      <line class="cls-1" x1="1188.82" x2="1188.82" y2="889.23"/>
      <line class="cls-1" x1="1238.34" x2="1238.34" y2="889.23"/>
      <line class="cls-1" x1="1287.85" x2="1287.85" y2="889.23"/>
      <line class="cls-1" x1="1337.36" x2="1337.36" y2="889.23"/>
      <line class="cls-1" x1="1386.88" x2="1386.88" y2="889.23"/>
      <line class="cls-1" x1="1436.39" x2="1436.39" y2="889.23"/>
      <line class="cls-1" x1="1485.9" x2="1485.9" y2="889.23"/>
      <line class="cls-1" x1="1535.42" x2="1535.42" y2="889.23"/>
      <line class="cls-1" x1="1584.93" x2="1584.93" y2="889.23"/>
      <line class="cls-1" x1="1634.44" x2="1634.44" y2="889.23"/>
      <line class="cls-1" x1="1683.96" x2="1683.96" y2="889.23"/>
      <line class="cls-1" x1="1733.47" x2="1733.47" y2="889.23"/>
      <line class="cls-1" x1="1782.98" x2="1782.98" y2="889.23"/>
      <line class="cls-1" x1="1832.5" x2="1832.5" y2="889.23"/>
      <line class="cls-1" x1="1882.01" x2="1882.01" y2="889.23"/>
      <line class="cls-1" x1="1931.52" x2="1931.52" y2="889.23"/>
      <line class="cls-1" x1="1981.04" x2="1981.04" y2="889.23"/>
      <line class="cls-1" x1="2030.55" x2="2030.55" y2="889.23"/>
      <line class="cls-1" x1="2080.06" x2="2080.06" y2="889.23"/>
      <line class="cls-1" x1="2129.58" x2="2129.58" y2="889.23"/>
      <line class="cls-1" x1="2179.09" x2="2179.09" y2="889.23"/>
      <line class="cls-1" x1="2228.6" x2="2228.6" y2="889.23"/>
    </g>
  </g>
</svg>