<?xml version="1.0" encoding="UTF-8"?>
<svg id="Layer_2" data-name="Layer 2" xmlns="http://www.w3.org/2000/svg" viewBox="0 0 2270.72 891.13">
  <defs>
    <style>
      .cls-1 {
        fill: none;
        stroke: #000;
        stroke-miterlimit: 10;
      }

      .cls-2 {
        opacity: .1;
      }
    </style>
  </defs>
  <g id="Layer_1-2" data-name="Layer 1">
    <g>
      <g class="cls-2">
        <line class="cls-1" x1="2228.6" y1="891.13" x2="2228.6" y2="1.9"/>
        <line class="cls-1" x1="2179.09" y1="891.13" x2="2179.09" y2="1.9"/>
        <line class="cls-1" x1="2129.58" y1="891.13" x2="2129.58" y2="1.9"/>
        <line class="cls-1" x1="2080.06" y1="891.13" x2="2080.06" y2="1.9"/>
        <line class="cls-1" x1="2030.55" y1="891.13" x2="2030.55" y2="1.9"/>
        <line class="cls-1" x1="1981.04" y1="891.13" x2="1981.04" y2="1.9"/>
        <line class="cls-1" x1="1931.52" y1="891.13" x2="1931.52" y2="1.9"/>
        <line class="cls-1" x1="1882.01" y1="891.13" x2="1882.01" y2="1.9"/>
        <line class="cls-1" x1="1832.5" y1="891.13" x2="1832.5" y2="1.9"/>
        <line class="cls-1" x1="1782.98" y1="891.13" x2="1782.98" y2="1.9"/>
        <line class="cls-1" x1="1733.47" y1="891.13" x2="1733.47" y2="1.9"/>
        <line class="cls-1" x1="1683.96" y1="891.13" x2="1683.96" y2="1.9"/>
        <line class="cls-1" x1="1634.44" y1="891.13" x2="1634.44" y2="1.9"/>
        <line class="cls-1" x1="1584.93" y1="891.13" x2="1584.93" y2="1.9"/>
        <line class="cls-1" x1="1535.42" y1="891.13" x2="1535.42" y2="1.9"/>
        <line class="cls-1" x1="1485.9" y1="891.13" x2="1485.9" y2="1.9"/>
        <line class="cls-1" x1="1436.39" y1="891.13" x2="1436.39" y2="1.9"/>
        <line class="cls-1" x1="1386.88" y1="891.13" x2="1386.88" y2="1.9"/>
        <line class="cls-1" x1="1337.36" y1="891.13" x2="1337.36" y2="1.9"/>
        <line class="cls-1" x1="1287.85" y1="891.13" x2="1287.85" y2="1.9"/>
        <line class="cls-1" x1="1238.34" y1="891.13" x2="1238.34" y2="1.9"/>
        <line class="cls-1" x1="1188.82" y1="891.13" x2="1188.82" y2="1.9"/>
        <line class="cls-1" x1="1139.31" y1="891.13" x2="1139.31" y2="1.9"/>
        <line class="cls-1" x1="1089.8" y1="891.13" x2="1089.8" y2="1.9"/>
        <line class="cls-1" x1="1040.28" y1="891.13" x2="1040.28" y2="1.9"/>
        <line class="cls-1" x1="990.77" y1="891.13" x2="990.77" y2="1.9"/>
        <line class="cls-1" x1="941.26" y1="891.13" x2="941.26" y2="1.9"/>
        <line class="cls-1" x1="891.74" y1="891.13" x2="891.74" y2="1.9"/>
        <line class="cls-1" x1="842.23" y1="891.13" x2="842.23" y2="1.9"/>
        <line class="cls-1" x1="792.71" y1="891.13" x2="792.71" y2="1.9"/>
        <line class="cls-1" x1="743.2" y1="891.13" x2="743.2" y2="1.9"/>
        <line class="cls-1" x1="693.69" y1="891.13" x2="693.69" y2="1.9"/>
        <line class="cls-1" x1="644.17" y1="891.13" x2="644.17" y2="1.9"/>
        <line class="cls-1" x1="594.66" y1="891.13" x2="594.66" y2="1.9"/>
        <line class="cls-1" x1="545.15" y1="891.13" x2="545.15" y2="1.9"/>
        <line class="cls-1" x1="495.63" y1="891.13" x2="495.63" y2="1.9"/>
        <line class="cls-1" x1="446.12" y1="891.13" x2="446.12" y2="1.9"/>
        <line class="cls-1" x1="396.61" y1="891.13" x2="396.61" y2="1.9"/>
        <line class="cls-1" x1="347.09" y1="891.13" x2="347.09" y2="1.9"/>
        <line class="cls-1" x1="297.58" y1="891.13" x2="297.58" y2="1.9"/>
        <line class="cls-1" x1="248.07" y1="891.13" x2="248.07" y2="1.9"/>
        <line class="cls-1" x1="198.55" y1="891.13" x2="198.55" y2="1.9"/>
        <line class="cls-1" x1="149.04" y1="891.13" x2="149.04" y2="1.9"/>
        <line class="cls-1" x1="99.53" y1="891.13" x2="99.53" y2="1.9"/>
        <line class="cls-1" x1="50.01" y1="891.13" x2="50.01" y2="1.9"/>
        <line class="cls-1" x1=".5" y1="891.13" x2=".5" y2="1.9"/>
      </g>
      <g class="cls-2">
        <line class="cls-1" x1=".8" y1="841.37" x2="2270.72" y2="841.37"/>
        <line class="cls-1" x1=".8" y1="791.91" x2="2270.72" y2="791.91"/>
        <line class="cls-1" x1=".8" y1="742.45" x2="2270.72" y2="742.45"/>
        <line class="cls-1" x1=".8" y1="692.98" x2="2270.72" y2="692.98"/>
        <line class="cls-1" x1=".8" y1="643.52" x2="2270.72" y2="643.52"/>
        <line class="cls-1" x1=".8" y1="594.06" x2="2270.72" y2="594.06"/>
        <line class="cls-1" x1=".8" y1="544.6" x2="2270.72" y2="544.6"/>
        <line class="cls-1" x1=".8" y1="495.13" x2="2270.72" y2="495.13"/>
        <line class="cls-1" x1=".8" y1="445.67" x2="2270.72" y2="445.67"/>
        <line class="cls-1" x1=".8" y1="396.21" x2="2270.72" y2="396.21"/>
        <line class="cls-1" x1=".8" y1="346.74" x2="2270.72" y2="346.74"/>
        <line class="cls-1" x1=".8" y1="297.28" x2="2270.72" y2="297.28"/>
        <line class="cls-1" x1=".8" y1="247.82" x2="2270.72" y2="247.82"/>
        <line class="cls-1" x1=".8" y1="198.35" x2="2270.72" y2="198.35"/>
        <line class="cls-1" x1=".8" y1="148.89" x2="2270.72" y2="148.89"/>
        <line class="cls-1" x1=".8" y1="99.43" x2="2270.72" y2="99.43"/>
        <line class="cls-1" x1=".8" y1="49.96" x2="2270.72" y2="49.96"/>
        <line class="cls-1" x1=".8" y1=".5" x2="2270.72" y2=".5"/>
      </g>
    </g>
  </g>
</svg>