<?xml version="1.0" encoding="UTF-8"?>
<svg id="Layer_2" data-name="Layer 2" xmlns="http://www.w3.org/2000/svg" viewBox="0 0 2270.72 891.13">
  <defs>
    <style>
      .cls-1 {
        fill: none;
        stroke: #000;
        stroke-miterlimit: 10;
      }

      .cls-2 {
        opacity: .5;
      }
    </style>
  </defs>
  <g id="Layer_1-2" data-name="Layer 1">
    <g class="cls-2">
      <line class="cls-1" x1="42.12" x2="42.12" y2="889.23"/>
      <line class="cls-1" x1="91.63" x2="91.63" y2="889.23"/>
      <line class="cls-1" x1="141.14" x2="141.14" y2="889.23"/>
      <line class="cls-1" x1="190.66" x2="190.66" y2="889.23"/>
      <line class="cls-1" x1="240.17" x2="240.17" y2="889.23"/>
      <line class="cls-1" x1="289.68" x2="289.68" y2="889.23"/>
      <line class="cls-1" x1="339.2" x2="339.2" y2="889.23"/>
      <line class="cls-1" x1="388.71" x2="388.71" y2="889.23"/>
      <line class="cls-1" x1="438.22" x2="438.22" y2="889.23"/>
      <line class="cls-1" x1="487.74" x2="487.74" y2="889.23"/>
      <line class="cls-1" x1="537.25" x2="537.25" y2="889.23"/>
      <line class="cls-1" x1="586.76" x2="586.76" y2="889.23"/>
      <line class="cls-1" x1="636.28" x2="636.28" y2="889.23"/>
      <line class="cls-1" x1="685.79" x2="685.79" y2="889.23"/>
      <line class="cls-1" x1="735.3" x2="735.3" y2="889.23"/>
      <line class="cls-1" x1="784.82" x2="784.82" y2="889.23"/>
      <line class="cls-1" x1="834.33" x2="834.33" y2="889.23"/>
      <line class="cls-1" x1="883.84" x2="883.84" y2="889.23"/>
      <line class="cls-1" x1="933.36" x2="933.36" y2="889.23"/>
      <line class="cls-1" x1="982.87" x2="982.87" y2="889.23"/>
      <line class="cls-1" x1="1032.38" x2="1032.38" y2="889.23"/>
      <line class="cls-1" x1="1081.9" x2="1081.9" y2="889.23"/>
      <line class="cls-1" x1="1131.41" x2="1131.41" y2="889.23"/>
      <line class="cls-1" x1="1180.93" x2="1180.93" y2="889.23"/>
      <line class="cls-1" x1="1230.44" x2="1230.44" y2="889.23"/>
      <line class="cls-1" x1="1279.95" x2="1279.95" y2="889.23"/>
      <line class="cls-1" x1="1329.47" x2="1329.47" y2="889.23"/>
      <line class="cls-1" x1="1378.98" x2="1378.98" y2="889.23"/>
      <line class="cls-1" x1="1428.49" x2="1428.49" y2="889.23"/>
      <line class="cls-1" x1="1478.01" x2="1478.01" y2="889.23"/>
      <line class="cls-1" x1="1527.52" x2="1527.52" y2="889.23"/>
      <line class="cls-1" x1="1577.03" x2="1577.03" y2="889.23"/>
      <line class="cls-1" x1="1626.55" x2="1626.55" y2="889.23"/>
      <line class="cls-1" x1="1676.06" x2="1676.06" y2="889.23"/>
      <line class="cls-1" x1="1725.57" x2="1725.57" y2="889.23"/>
      <line class="cls-1" x1="1775.09" x2="1775.09" y2="889.23"/>
      <line class="cls-1" x1="1824.6" x2="1824.6" y2="889.23"/>
      <line class="cls-1" x1="1874.11" x2="1874.11" y2="889.23"/>
      <line class="cls-1" x1="1923.63" x2="1923.63" y2="889.23"/>
      <line class="cls-1" x1="1973.14" x2="1973.14" y2="889.23"/>
      <line class="cls-1" x1="2022.65" x2="2022.65" y2="889.23"/>
      <line class="cls-1" x1="2072.17" x2="2072.17" y2="889.23"/>
      <line class="cls-1" x1="2121.68" x2="2121.68" y2="889.23"/>
      <line class="cls-1" x1="2171.19" x2="2171.19" y2="889.23"/>
      <line class="cls-1" x1="2220.71" x2="2220.71" y2="889.23"/>
      <line class="cls-1" x1="2270.22" x2="2270.22" y2="889.23"/>
    </g>
    <g class="cls-2">
      <line class="cls-1" x1="2269.92" y1="49.76" y2="49.76"/>
      <line class="cls-1" x1="2269.92" y1="99.22" x2="0" y2="99.22"/>
      <line class="cls-1" x1="2269.92" y1="148.69" y2="148.69"/>
      <line class="cls-1" x1="2269.92" y1="198.15" x2="0" y2="198.15"/>
      <line class="cls-1" x1="2269.92" y1="247.61" y2="247.61"/>
      <line class="cls-1" x1="2269.92" y1="297.08" x2="0" y2="297.08"/>
      <line class="cls-1" x1="2269.92" y1="346.54" y2="346.54"/>
      <line class="cls-1" x1="2269.92" y1="396" x2="0" y2="396"/>
      <line class="cls-1" x1="2269.92" y1="445.46" y2="445.46"/>
      <line class="cls-1" x1="2269.92" y1="494.93" x2="0" y2="494.93"/>
      <line class="cls-1" x1="2269.92" y1="544.39" y2="544.39"/>
      <line class="cls-1" x1="2269.92" y1="593.85" x2="0" y2="593.85"/>
      <line class="cls-1" x1="2269.92" y1="643.32" y2="643.32"/>
      <line class="cls-1" x1="2269.92" y1="692.78" x2="0" y2="692.78"/>
      <line class="cls-1" x1="2269.92" y1="742.24" y2="742.24"/>
      <line class="cls-1" x1="2269.92" y1="791.71" x2="0" y2="791.71"/>
      <line class="cls-1" x1="2269.92" y1="841.17" y2="841.17"/>
      <line class="cls-1" x1="2269.92" y1="890.63" x2="0" y2="890.63"/>
    </g>
  </g>
</svg>