<?xml version="1.0" encoding="UTF-8"?>
<svg id="Layer_2" data-name="Layer 2" xmlns="http://www.w3.org/2000/svg" viewBox="0 0 1596.39 173">
  <defs>
    <style>
      .cls-1 {
        fill: #ff472b;
      }

      .cls-2 {
        fill: #d9d4d2;
      }

      .cls-3 {
        fill: #ff6047;
      }
    </style>
  </defs>
  <g id="Layer_1-2" data-name="Layer 1">
    <polygon class="cls-1" points="1539.24 173 1366.24 0 1219.89 0 1219.79 .1 1392.69 173 1539.24 173"/>
    <path class="cls-3" d="M1568.26,132.5c-9.16-9.16-18.32-18.32-27.48-27.48-9.16-9.16-18.32-18.32-27.48-27.48s-18.38-18.38-27.56-27.56c-9.19-9.19-18.38-18.38-27.56-27.56-6.62-6.62-13.23-13.23-19.85-19.85-1.64-1.64-3.87-2.57-6.19-2.57h-63.29l-.1.1,170.34,170.34c1.64,1.64,3.87,2.57,6.19,2.57h42.34c7.8,0,11.71-9.43,6.19-14.95l-25.55-25.55Z"/>
    <path class="cls-2" d="M1219.75,2.56c-1.64-1.64-3.86-2.56-6.18-2.56H0v173h1390.99c-5.24-4.97-171.23-170.44-171.23-170.44Z"/>
  </g>
</svg>