<?xml version="1.0" encoding="UTF-8"?>
<svg id="Layer_2" data-name="Layer 2" xmlns="http://www.w3.org/2000/svg" viewBox="0 0 1190.42 173">
  <defs>
    <style>
      .cls-1 {
        fill: #e58945;
      }

      .cls-2 {
        fill: #c86d20;
      }

      .cls-3 {
        fill: #d9d4d2;
      }
    </style>
  </defs>
  <g id="Layer_1-2" data-name="Layer 1">
    <polygon class="cls-2" points="1133.27 173 960.27 0 813.92 0 813.82 .1 986.73 173 1133.27 173"/>
    <path class="cls-1" d="M1162.29,132.5c-9.16-9.16-18.32-18.32-27.48-27.48-9.16-9.16-18.32-18.32-27.48-27.48s-18.38-18.38-27.56-27.56c-9.19-9.19-18.38-18.38-27.56-27.56-6.62-6.62-13.23-13.23-19.85-19.85-1.64-1.64-3.87-2.57-6.19-2.57h-63.29l-.1.1,170.34,170.34c1.64,1.64,3.87,2.57,6.19,2.57h42.34c7.8,0,11.71-9.43,6.19-14.95l-25.55-25.55Z"/>
    <path class="cls-3" d="M813.78,2.56c-1.64-1.64-3.86-2.56-6.18-2.56H8.74C3.91,0,0,3.91,0,8.74v155.52c0,4.83,3.91,8.74,8.74,8.74h976.28c-5.24-4.97-171.23-170.44-171.23-170.44Z"/>
  </g>
</svg>